<?xml version="1.0" standalone="no"?>
<!DOCTYPE svg PUBLIC "-//W3C//DTD SVG 20010904//EN"
 "http://www.w3.org/TR/2001/REC-SVG-20010904/DTD/svg10.dtd">
<svg version="1.0" xmlns="http://www.w3.org/2000/svg"
 width="260.000000pt" height="260.000000pt" viewBox="0 0 260.000000 260.000000"
 preserveAspectRatio="xMidYMid meet">
<metadata>
Created by potrace 1.14, written by Peter Selinger 2001-2017
</metadata>
<g transform="translate(0.000000,260.000000) scale(0.100000,-0.100000)"
fill="#000000" stroke="none">
<path d="M914 2273 c-14 -32 -38 -85 -54 -118 -43 -92 -79 -172 -120 -265 -65
-145 -110 -244 -120 -262 -9 -17 -2 -18 107 -18 l118 1 65 147 c101 231 131
292 141 286 5 -3 9 -9 9 -13 0 -5 61 -144 135 -311 75 -166 133 -305 130 -308
-3 -3 -185 -6 -405 -6 l-399 0 -36 -79 c-20 -43 -40 -89 -45 -102 l-9 -23 722
0 c397 -1 749 -4 782 -7 236 -22 373 -107 419 -258 13 -45 15 -175 2 -196 -4
-6 -9 -21 -11 -33 -5 -26 -46 -86 -83 -120 -41 -39 -112 -75 -191 -97 l-72
-20 -43 92 c-24 51 -52 112 -63 137 -57 129 -81 180 -108 235 l-30 60 -710 0
-709 0 -126 -276 c-69 -152 -134 -296 -144 -320 -10 -24 -29 -66 -42 -92 l-22
-48 120 3 121 3 37 87 c21 47 49 110 63 140 13 29 46 103 72 163 27 61 54 116
61 124 10 11 112 13 569 13 307 -1 561 -5 565 -9 8 -9 140 -305 140 -313 0 -3
-262 -5 -582 -5 -321 1 -591 -2 -601 -5 -11 -4 -33 -38 -53 -86 -19 -43 -39
-87 -45 -97 -10 -18 19 -18 763 -14 425 2 785 7 800 10 16 3 47 8 70 12 156
27 338 133 400 235 12 19 24 37 27 40 14 12 43 87 56 142 19 84 13 218 -14
289 -59 155 -187 266 -375 323 l-38 12 68 42 c83 50 136 99 180 167 122 192
96 462 -61 614 -75 74 -204 136 -345 167 -19 4 -266 9 -548 11 l-513 4 -25
-58z m1042 -166 c97 -21 162 -56 218 -118 60 -67 80 -133 73 -240 -8 -134 -68
-223 -191 -283 -89 -44 -164 -57 -328 -59 l-151 -2 -31 65 c-93 199 -293 646
-291 650 2 3 144 4 317 4 239 -1 330 -5 384 -17z"/>
</g>
</svg>
